<?xml version="1.0" encoding="UTF-8" standalone="no"?>
<!-- Created with Inkscape (http://www.inkscape.org/) -->

<svg
   xmlns:dc="http://purl.org/dc/elements/1.1/"
   xmlns:cc="http://creativecommons.org/ns#"
   xmlns:rdf="http://www.w3.org/1999/02/22-rdf-syntax-ns#"
   xmlns:svg="http://www.w3.org/2000/svg"
   xmlns="http://www.w3.org/2000/svg"
   xmlns:sodipodi="http://sodipodi.sourceforge.net/DTD/sodipodi-0.dtd"
   xmlns:inkscape="http://www.inkscape.org/namespaces/inkscape"
   sodipodi:docname="namemasksmall.svg"
   width="375"
   height="200"
   viewBox="0 0 375 200"
   id="svg2"
   version="1.1"
   inkscape:version="0.91 r13725">
  <defs
     id="defs4" />
  <sodipodi:namedview
     units="px"
     id="base"
     pagecolor="#ffffff"
     bordercolor="#666666"
     borderopacity="1.0"
     inkscape:pageopacity="0.0"
     inkscape:pageshadow="2"
     inkscape:zoom="0.80150042"
     inkscape:cx="355.34031"
     inkscape:cy="206.20059"
     inkscape:document-units="px"
     inkscape:current-layer="layer2"
     showgrid="false"
     inkscape:window-width="1366"
     inkscape:window-height="705"
     inkscape:window-x="-8"
     inkscape:window-y="-8"
     inkscape:window-maximized="1" />
  <metadata
     id="metadata7">
    <rdf:RDF>
      <cc:Work
         rdf:about="">
        <dc:format>image/svg+xml</dc:format>
        <dc:type
           rdf:resource="http://purl.org/dc/dcmitype/StillImage" />
        <dc:title></dc:title>
      </cc:Work>
    </rdf:RDF>
  </metadata>
  <g
     inkscape:label="Layer 1"
     inkscape:groupmode="layer"
     id="layer1"
     transform="translate(0,-852.36216)" />
  <g
     inkscape:groupmode="layer"
     id="layer2"
     inkscape:label="Layer 2"
     transform="translate(0,-852.36216)">
    <path
       style="fill:#ffffff;fill-opacity:1;stroke:#000000;stroke-width:0.52878016;stroke-miterlimit:4;stroke-dasharray:none;stroke-opacity:1"
       d="m 0.26490843,852.62558 0,199.47162 11.98732157,0 0,-0.013 349.51611,0 0,0.01 12.96584,0 0,-134.98899 0.002,0 0,-64.46712 -362.482924,0 0,-0.008 -11.98829754,0 z M 58.19956,926.77828 c 8.778727,0.0113 14.00922,5.53054 15.410176,16.2618 0.709586,5.43514 0.073,11.77248 -1.634767,16.27547 -1.365611,3.60063 -4.851662,7.51264 -8.023451,9.00297 -3.607205,1.69489 -8.961527,1.64579 -12.459977,-0.11328 -6.537871,-3.28732 -9.840007,-11.01122 -9.325208,-21.8126 0.437762,-9.18405 3.389304,-14.98387 9.158218,-17.99716 2.717739,-1.41956 3.57287,-1.6217 6.875009,-1.6172 z m 93.60853,0.41895 9.96876,0.16016 c 9.27549,0.14961 10.1302,0.24172 12.30275,1.3213 1.2841,0.63809 2.80726,1.82853 3.3838,2.64551 3.05936,4.3352 1.94287,10.68351 -2.39747,13.63484 l -1.57813,1.07324 1.46193,0.61036 c 2.03601,0.85094 4.75206,4.03228 5.375,6.29593 1.62863,5.91791 -0.96468,11.73098 -6.36427,14.26764 -1.97424,0.92748 -3.29961,1.05886 -12.18361,1.20216 l -9.96876,0.16015 0,-2.02344 0,-2.02345 2.21582,0 2.21485,0 0,-16.63875 0,-16.63875 -2.21485,0 -2.21582,0 0,-2.02345 0,-2.02345 z m -129.462096,0.0733 7.137705,0 7.137705,0 0,1.98633 0,1.98732 -2.195316,0 -2.195315,0 -0.142578,21.2335 c -0.135238,20.0828 -0.196779,21.3401 -1.127931,23.213 -0.54148,1.08912 -1.737292,2.48625 -2.657231,3.10451 -1.260845,0.84737 -2.382192,1.12402 -4.553717,1.12402 l -2.880864,0 0,-1.98633 c 0,-1.75446 0.135353,-1.98732 1.157228,-1.98732 1.788719,0 4.136108,-0.97191 4.578132,-1.89649 0.219427,-0.45897 0.471494,-10.27855 0.560548,-21.82042 l 0.16211,-20.98447 -2.490238,0 -2.490238,0 0,-1.98732 0,-1.98633 z m 56.609455,0 13.537128,0 13.536143,0 0,4.71779 0,4.71878 -2.21484,0 -2.21582,0 0,-2.73146 0,-2.73146 -6.398449,0 -6.399423,0 0,6.95316 0,6.95413 3.446294,0 3.445315,0 0,-1.73927 c 0,-1.72922 0.0124,-1.73828 2.215824,-1.73828 l 2.213879,0 0,6.20901 0,6.20902 -2.213879,0 -2.215824,0 0,-2.23537 0,-2.23536 -3.445315,0 -3.446294,0 0,7.45023 0,7.45023 6.645514,0 6.644548,0 0,-2.73146 0,-2.73146 2.46192,0 2.46093,0 0,4.7178 0,4.71878 -14.028337,0 -14.029314,0 0,-1.98635 0,-1.98731 2.460939,0 2.461917,0 0,-16.63875 0,-16.63875 -2.461917,0 -2.460939,0 0,-1.98732 0,-1.98633 z m 31.996131,0 7.13771,0 7.1377,0 0,1.98633 0,1.98732 -2.46094,0 -2.46192,0 0,16.63875 0,16.63875 6.15333,0 6.15333,0 0,-2.73146 0,-2.73146 2.21582,0 2.21486,0 0,4.7178 0,4.71878 -13.04495,0 -13.04494,0 0,-1.98635 0,-1.98731 2.21485,0 2.21582,0 0,-16.63875 0,-16.63875 -2.21582,0 -2.21485,0 0,-1.98732 0,-1.98633 z m 73.83897,0 7.13674,0 7.1377,0 0,1.98633 0,1.98732 -2.24317,0 -2.24317,0 0.15137,14.36823 c 0.14349,13.67477 0.20059,14.43606 1.18067,15.76961 4.23299,5.75995 14.19976,5.15458 16.9844,-1.03224 0.82083,-1.82376 0.9169,-3.44684 0.92676,-15.57136 l 0.0107,-13.53424 -2.21485,0 -2.21485,0 0,-1.98732 0,-1.98633 6.89162,0 6.8916,0 0,1.98633 0,1.98732 -2.18164,0 -2.18066,0 -0.16017,14.03131 c -0.17859,15.62404 -0.23273,15.91751 -3.6416,19.72471 -1.0231,1.14267 -2.76186,2.54982 -3.86329,3.12697 -2.52698,1.32412 -9.90604,1.73477 -12.64357,0.7041 -4.25706,-1.60278 -7.13819,-4.4614 -8.39063,-8.32621 -0.3243,-1.00084 -0.6433,-7.34096 -0.77832,-15.47859 l -0.22851,-13.78229 -2.1631,0 -2.16407,0 0,-1.98732 0,-1.98633 z m 40.85651,0 14.7842,0 14.78517,0 -0.14062,5.09084 -0.13965,5.09084 -2.21485,0 -2.21582,0 -0.14648,-3.1045 -0.14649,-3.10353 -3.66894,0 -3.66798,0 0,16.63875 0,16.63875 2.70703,0 2.70802,0 0,1.98731 0,1.98635 -7.876,0 -7.87696,0 0,-1.98635 0,-1.98731 2.46192,0 2.46094,0 0,-16.63875 0,-16.63875 -3.66798,0 -3.66797,0 -0.14649,3.10353 -0.14647,3.1045 -2.09181,0.15332 -2.09277,0.15235 0,-5.24416 0,-5.24319 z m 32.48832,0 7.13868,0 7.13771,0 0,1.98633 0,1.98732 -2.21583,0 -2.21484,0 0,16.63875 0,16.63875 5.90723,0 5.90626,0 0,-2.73146 0,-2.73146 2.21485,0 2.21582,0 0,4.7178 0,4.71878 -13.04493,0 -13.04495,0 0,-1.98635 0,-1.98731 2.21582,0 2.21485,0 0,-16.63875 0,-16.63875 -2.21485,0 -2.21582,0 0,-1.98732 0,-1.98633 z m 29.5352,0 13.53713,0 13.53713,0 0,4.71779 0,4.71878 -2.46094,0 -2.46095,0 0,-2.73146 0,-2.73146 -6.39943,0 -6.39941,0 0,6.95316 0,6.95413 3.69141,0 3.69239,0 0,-1.73927 c 0,-1.69707 0.0466,-1.73828 1.96875,-1.73828 l 1.96875,0 0,6.20901 0,6.20902 -1.96875,0 -1.96875,0 0,-2.23537 0,-2.23536 -3.69239,0 -3.69141,0 0,7.45023 0,7.45023 6.89161,0 6.8916,0 0,-2.73146 0,-2.73146 2.21486,0 2.21582,0 0,4.7178 0,4.71878 -13.7842,0 -13.78322,0 0,-1.98635 0,-1.98731 2.21484,0 2.21583,0 0,-16.63875 0,-16.63875 -2.21583,0 -2.21484,0 0,-1.98732 0,-1.98633 z m 31.99711,0 9.08889,0 c 10.0219,0 12.64892,0.50167 15.19826,2.90431 5.46195,5.14764 3.54723,14.80161 -3.54689,17.88094 l -2.43944,1.0586 1.58593,1.61915 c 0.87208,0.89074 3.08405,4.35768 4.91602,7.70413 l 3.33106,6.08402 1.93164,0 c 1.92483,0 1.93067,0.007 1.93067,1.98731 l 0,1.98635 -3.8877,0 -3.88867,0 -3.80275,-7.20805 c -4.47898,-8.48879 -6.56127,-11.08645 -9.21876,-11.50493 l -1.84571,-0.29102 0,7.51566 0,7.51468 2.21486,0 2.21484,0 0,1.98731 0,1.98635 -7.1377,0 -7.13673,0 0,-1.98635 0,-1.98731 2.46093,0 2.46095,0 0,-16.63875 0,-16.63875 -2.21485,0 -2.21485,0 0,-1.98732 0,-1.98633 z m -261.84313,3.66603 c -2.693049,0.10081 -5.378762,1.22546 -7.070325,3.25392 -2.367211,2.83859 -3.059242,6.00934 -3.040042,13.94049 0.01497,6.24113 0.162418,7.56928 1.104493,9.95416 1.270218,3.2155 4.064757,6.15803 6.50782,6.85159 2.325158,0.66009 2.879534,0.66247 5.157237,0.0244 4.608447,-1.29093 7.545076,-6.7401 7.999032,-14.8448 0.45421,-8.10917 -1.442262,-14.98479 -4.827153,-17.50008 -1.638151,-1.2173 -3.736475,-1.75811 -5.831062,-1.6797 z m 271.19568,0.16015 0,7.34868 0,7.34768 3.69239,-0.31445 c 6.30326,-0.53762 8.49005,-2.10555 8.97365,-6.43461 0.31198,-2.79254 -0.83968,-5.5243 -2.74708,-6.51956 -0.81418,-0.42481 -3.37952,-0.91962 -5.7002,-1.09961 l -4.21876,-0.32813 z m -167.85862,0.14747 0,6.77444 0,6.77542 4.13379,-0.25976 c 4.8047,-0.30246 6.78041,-1.23812 7.97462,-3.77736 1.08994,-2.31764 0.68653,-5.76936 -0.85645,-7.32621 -1.27365,-1.28515 -4.92741,-2.18653 -8.8584,-2.18653 l -2.39356,0 z m 0,17.2364 0,8.09477 0,8.09379 4.40821,-0.28809 c 7.12188,-0.46557 9.28884,-2.08378 9.70412,-7.24807 0.45468,-5.65449 -2.10135,-7.86719 -9.66116,-8.36137 l -4.45117,-0.29103 z"
       id="path3562"
       inkscape:connector-curvature="0" />
  </g>
</svg>
