<?xml version="1.0" encoding="UTF-8" standalone="no"?>
<!-- Created with Inkscape (http://www.inkscape.org/) -->

<svg
   xmlns:dc="http://purl.org/dc/elements/1.1/"
   xmlns:cc="http://creativecommons.org/ns#"
   xmlns:rdf="http://www.w3.org/1999/02/22-rdf-syntax-ns#"
   xmlns:svg="http://www.w3.org/2000/svg"
   xmlns="http://www.w3.org/2000/svg"
   xmlns:sodipodi="http://sodipodi.sourceforge.net/DTD/sodipodi-0.dtd"
   xmlns:inkscape="http://www.inkscape.org/namespaces/inkscape"
   inkscape:version="0.91 r13725"
   version="1.1"
   id="svg2"
   viewBox="0 0 744.09448819 1052.3622047"
   height="297mm"
   width="210mm"
   sodipodi:docname="Name Mask.svg">
  <defs
     id="defs4" />
  <sodipodi:namedview
     inkscape:window-maximized="1"
     inkscape:window-y="-8"
     inkscape:window-x="-8"
     inkscape:window-height="705"
     inkscape:window-width="1366"
     showgrid="false"
     inkscape:current-layer="layer2"
     inkscape:document-units="px"
     inkscape:cy="272.1122"
     inkscape:cx="383.69544"
     inkscape:zoom="0.74612403"
     inkscape:pageshadow="2"
     inkscape:pageopacity="0.0"
     borderopacity="1.0"
     bordercolor="#666666"
     pagecolor="#ffffff"
     id="base" />
  <metadata
     id="metadata7">
    <rdf:RDF>
      <cc:Work
         rdf:about="">
        <dc:format>image/svg+xml</dc:format>
        <dc:type
           rdf:resource="http://purl.org/dc/dcmitype/StillImage" />
        <dc:title></dc:title>
      </cc:Work>
    </rdf:RDF>
  </metadata>
  <g
     inkscape:label="Layer 1"
     inkscape:groupmode="layer"
     id="layer1" />
  <g
     inkscape:groupmode="layer"
     id="layer2"
     inkscape:label="Layer 2">
    <path
       style="fill:#ffffff;fill-opacity:1;stroke:#000000;stroke-width:1.05759633;stroke-miterlimit:4;stroke-dasharray:none;stroke-opacity:1"
       d="m 0.51171291,652.87499 0,398.97461 23.97603109,0 0,-0.027 699.029446,0 0,0.01 25.93303,0 0,-269.99612 0.004,0 0,-128.94337 -724.966376,0 0,-0.0156 -23.97603109,0 z"
       id="path3562" />
    <path
       id="rect3484-3"
       style="fill:#000000;fill-opacity:1;stroke:#000000;stroke-width:1.05759633;stroke-miterlimit:4;stroke-dasharray:none;stroke-opacity:1"
       d="m 322.30537,844.61719 0,16.18945 0,16.1875 8.81622,-0.57617 c 14.24374,-0.93114 18.57724,-4.16755 19.40777,-14.49609 0.90938,-11.30891 -4.20226,-15.73428 -19.32185,-16.72266 l -8.90214,-0.58203 z m 0,-34.47266 0,13.54883 0,13.55078 8.2674,-0.51953 c 9.60938,-0.60491 13.56045,-2.47624 15.94887,-7.55469 2.17989,-4.63526 1.37309,-11.53865 -1.71286,-14.65234 -2.54731,-2.57028 -9.85443,-4.37305 -17.7164,-4.37305 l -4.78701,0 z m 335.71718,-0.29492 0,14.69727 0,14.69531 7.38461,-0.62891 c 12.60649,-1.07524 16.97967,-4.21107 17.94686,-12.86914 0.62398,-5.58506 -1.67924,-11.04856 -5.49402,-13.03906 -1.62837,-0.84963 -6.75879,-1.83925 -11.40014,-2.19922 l -8.43731,-0.65625 z M 115.63222,809.5293 c -5.38609,0.20162 -10.75915,2.45092 -14.14227,6.50781 -4.734413,5.67716 -6.118347,12.01863 -6.079947,27.88086 0.02993,12.48219 0.324787,15.13847 2.208936,19.9082 2.540431,6.43096 8.131171,12.316 13.017291,13.70313 4.65031,1.32016 5.75882,1.3249 10.31422,0.0488 9.21688,-2.58186 15.08978,-13.48014 15.99769,-29.68945 0.90842,-16.21826 -2.8843,-29.96944 -9.65407,-35 -3.2763,-2.43459 -7.47268,-3.51619 -11.66185,-3.35937 z m 523.68371,-7.33203 18.17929,0 c 20.04378,0 25.29715,1.00335 30.39581,5.80859 10.9239,10.29524 7.09463,29.6031 -7.09359,35.76172 l -4.87881,2.11719 3.17181,3.23828 c 1.74416,1.78147 6.16788,8.71532 9.83182,15.4082 l 6.66196,12.16797 3.86319,0 c 3.84963,0 3.86125,0.0141 3.86125,3.97461 l 0,3.97265 -7.77522,0 -7.77718,0 -7.60529,-14.41601 c -8.95794,-16.9775 -13.12213,-22.1728 -18.43709,-23.00977 l -3.69133,-0.58203 0,15.03125 0,15.0293 4.42959,0 4.42958,0 0,3.97461 0,3.97265 -14.27507,0 -14.27507,0 0,-3.97265 0,-3.97461 4.92372,0 4.92177,0 0,-33.27734 0,-33.27735 -4.42959,0 -4.43155,0 0,-3.97461 0,-3.97265 z m -63.99272,0 27.07362,0 27.07362,0 0,9.43554 0,9.4375 -4.92177,0 -4.92177,0 0,-5.46289 0,-5.46289 -12.79854,0 -12.79854,0 0,13.90625 0,13.9082 7.38264,0 7.38461,0 0,-3.47851 c 0,-3.39412 0.0931,-3.47656 3.93741,-3.47656 l 3.93742,0 0,12.41797 0,12.41796 -3.93742,0 -3.93741,0 0,-4.4707 0,-4.4707 -7.38461,0 -7.38264,0 0,14.90039 0,14.90039 13.78289,0 13.78291,0 0,-5.46289 0,-5.46289 4.42958,0 4.43154,0 0,9.43554 0,9.4375 -27.56775,0 -27.56579,0 0,-3.97265 0,-3.97461 4.42958,0 4.43155,0 0,-33.27734 0,-33.27735 -4.43155,0 -4.42958,0 0,-3.97461 0,-3.97265 z m -59.07096,0 14.27703,0 14.27508,0 0,3.97265 0,3.97461 -4.43155,0 -4.42959,0 0,33.27735 0,33.27734 11.81419,0 11.81419,0 0,-5.46289 0,-5.46289 4.42959,0 4.43154,0 0,9.43554 0,9.4375 -26.09121,0 -26.08927,0 0,-3.97265 0,-3.97461 4.43154,0 4.42959,0 0,-33.27734 0,-33.27735 -4.42959,0 -4.43154,0 0,-3.97461 0,-3.97265 z m -64.97707,0 29.56965,0 29.56966,0 -0.28125,10.18164 -0.27929,10.18164 -4.42958,0 -4.43154,0 -0.29297,-6.20899 -0.29296,-6.20703 -7.33773,0 -7.33578,0 0,33.27735 0,33.27734 5.41394,0 5.4159,0 0,3.97461 0,3.97265 -15.7516,0 -15.75356,0 0,-3.97265 0,-3.97461 4.92372,0 4.92176,0 0,-33.27734 0,-33.27735 -7.33577,0 -7.33773,0 -0.29296,6.20703 -0.29296,6.20899 -4.18351,0.30664 -4.18544,0.30469 0,-10.48829 0,-10.48632 z m -81.71304,0 14.27507,0 14.27507,0 0,3.97265 0,3.97461 -4.48622,0 -4.48623,0 0.30273,28.73633 c 0.28698,27.34942 0.40112,28.87197 2.36127,31.53906 8.46597,11.51984 28.39874,10.30912 33.968,-2.06445 1.64166,-3.64751 1.83378,-6.89366 1.85348,-31.14258 l 0.0215,-27.06836 -4.42959,0 -4.42958,0 0,-3.97461 0,-3.97265 13.78289,0 13.7829,0 0,3.97265 0,3.97461 -4.36319,0 -4.36123,0 -0.3203,28.0625 c -0.35719,31.24791 -0.46532,31.83486 -7.28304,39.44922 -2.04619,2.28534 -5.52357,5.09963 -7.7264,6.25391 -5.05395,2.64824 -19.81152,3.46952 -25.28655,1.4082 -8.51411,-3.20555 -14.276,-8.92276 -16.78088,-16.65234 -0.6486,-2.00167 -1.28657,-14.68187 -1.55661,-30.95704 l -0.45702,-27.56445 -4.32802,0 -4.32803,0 0,-3.97461 0,-3.97265 z m -147.67643,0 14.27509,0 14.27507,0 0,3.97265 0,3.97461 -4.92177,0 -4.92372,0 0,33.27735 0,33.27734 12.30637,0 12.30637,0 0,-5.46289 0,-5.46289 4.43154,0 4.42959,0 0,9.43554 0,9.4375 -26.08926,0 -26.08928,0 0,-3.97265 0,-3.97461 4.4296,0 4.43154,0 0,-33.27734 0,-33.27735 -4.43154,0 -4.4296,0 0,-3.97461 0,-3.97265 z m -63.99272,0 27.07362,0 27.07362,0 0,9.43554 0,9.4375 -4.42959,0 -4.43154,0 0,-5.46289 0,-5.46289 -12.79854,0 -12.79855,0 0,13.90625 0,13.9082 6.89243,0 6.89047,0 0,-3.47851 c 0,-3.45842 0.0247,-3.47656 4.43154,-3.47656 l 4.42959,0 0,12.41797 0,12.41796 -4.42959,0 -4.43154,0 0,-4.4707 0,-4.4707 -6.89047,0 -6.89243,0 0,14.90039 0,14.90039 13.29072,0 13.29073,0 0,-5.46289 0,-5.46289 4.92372,0 4.92176,0 0,9.43554 0,9.4375 -28.05797,0 -28.05798,0 0,-3.97265 0,-3.97461 4.92177,0 4.92372,0 0,-33.27734 0,-33.27735 -4.92372,0 -4.92177,0 0,-3.97461 0,-3.97265 z m -113.218192,0 14.275075,0 14.275074,0 0,3.97265 0,3.97461 -4.390527,0 -4.390529,0 -0.28515,42.4668 c -0.270474,40.16542 -0.393505,42.68001 -2.255809,46.42578 -1.082957,2.17823 -3.474459,4.97247 -5.314335,6.20898 -2.521687,1.69473 -4.764177,2.24805 -9.107221,2.24805 l -5.761591,0 0,-3.97266 c 0,-3.5089 0.270654,-3.9746 2.314402,-3.9746 3.577432,0 8.272,-1.94382 9.156047,-3.79297 0.438853,-0.91794 0.942961,-20.55702 1.121069,-43.64063 l 0.324212,-41.96875 -4.980359,0 -4.980358,0 0,-3.97461 0,-3.97265 z m 258.923962,-0.14649 19.93705,0.32031 c 18.55096,0.29923 20.25982,0.48344 24.60493,2.64258 2.5682,1.27619 5.61437,3.65706 6.76743,5.29102 6.11871,8.67034 3.88586,21.3669 -4.79482,27.26953 l -3.15618,2.14648 2.92376,1.22071 c 4.07202,1.70188 9.50388,8.06452 10.74976,12.59179 3.25726,11.83577 -1.92907,23.46185 -12.72823,28.53516 -3.94847,1.85494 -6.59867,2.11771 -24.36665,2.4043 l -19.93705,0.32031 0,-4.04688 0,-4.04687 4.43154,0 4.42959,0 0,-33.27734 0,-33.27735 -4.42959,0 -4.43154,0 0,-4.04687 0,-4.04688 z M 116.3822,801.21289 c 17.55743,0.0226 28.01772,11.06102 30.81963,32.52344 1.41917,10.87022 0.14608,23.54483 -3.26946,32.55078 -2.73122,7.20123 -9.70296,15.02521 -16.04653,18.00586 -7.2144,3.38977 -17.92442,3.29156 -24.92131,-0.22656 -13.075721,-6.57461 -19.679582,-22.02233 -18.649985,-43.625 0.875522,-18.36802 6.778192,-29.96758 18.315995,-35.99414 5.43547,-2.83911 7.14739,-3.24338 13.75166,-3.23438 z" />
  </g>
</svg>
