<?xml version="1.0" encoding="UTF-8" standalone="no"?>
<!-- Created with Inkscape (http://www.inkscape.org/) -->

<svg
   xmlns:dc="http://purl.org/dc/elements/1.1/"
   xmlns:cc="http://creativecommons.org/ns#"
   xmlns:rdf="http://www.w3.org/1999/02/22-rdf-syntax-ns#"
   xmlns:svg="http://www.w3.org/2000/svg"
   xmlns="http://www.w3.org/2000/svg"
   xmlns:sodipodi="http://sodipodi.sourceforge.net/DTD/sodipodi-0.dtd"
   xmlns:inkscape="http://www.inkscape.org/namespaces/inkscape"
   sodipodi:docname="namemask.svg"
   width="750"
   height="400"
   viewBox="0 0 750.00001 400.00001"
   id="svg2"
   version="1.1"
   inkscape:version="0.91 r13725">
  <defs
     id="defs4" />
  <sodipodi:namedview
     units="px"
     id="base"
     pagecolor="#ffffff"
     bordercolor="#666666"
     borderopacity="1.0"
     inkscape:pageopacity="0.0"
     inkscape:pageshadow="2"
     inkscape:zoom="0.74612403"
     inkscape:cx="434.6253"
     inkscape:cy="272.1122"
     inkscape:document-units="px"
     inkscape:current-layer="layer2"
     showgrid="false"
     inkscape:window-width="1366"
     inkscape:window-height="705"
     inkscape:window-x="-8"
     inkscape:window-y="-8"
     inkscape:window-maximized="1" />
  <metadata
     id="metadata7">
    <rdf:RDF>
      <cc:Work
         rdf:about="">
        <dc:format>image/svg+xml</dc:format>
        <dc:type
           rdf:resource="http://purl.org/dc/dcmitype/StillImage" />
        <dc:title></dc:title>
      </cc:Work>
    </rdf:RDF>
  </metadata>
  <g
     inkscape:label="Layer 1"
     inkscape:groupmode="layer"
     id="layer1"
     transform="translate(0,-652.36216)" />
  <g
     inkscape:groupmode="layer"
     id="layer2"
     inkscape:label="Layer 2"
     transform="translate(0,-652.36216)">
    <path
       style="fill:#ffffff;fill-opacity:1;stroke:#000000;stroke-width:1.05755711;stroke-miterlimit:4;stroke-dasharray:none;stroke-opacity:1"
       d="M 0.52929688 0.52929688 L 0.52929688 399.4707 L 24.503906 399.4707 L 24.503906 399.44336 L 723.53516 399.44336 L 723.53516 399.45508 L 749.4668 399.45508 L 749.4668 129.47852 L 749.4707 129.47852 L 749.4707 0.54492188 L 24.505859 0.54492188 L 24.505859 0.52929688 L 0.52929688 0.52929688 z M 116.39844 148.83398 C 133.95587 148.85658 144.41684 159.895 147.21875 181.35742 C 148.63792 192.22764 147.36476 204.90225 143.94922 213.9082 C 141.218 221.10943 134.24591 228.93341 127.90234 231.91406 C 120.68794 235.30383 109.97931 235.20562 102.98242 231.6875 C 89.906696 225.11289 83.302434 209.66517 84.332031 188.0625 C 85.207553 169.69448 91.11063 158.09492 102.64844 152.06836 C 108.08391 149.22925 109.79417 148.82498 116.39844 148.83398 z M 303.61523 149.67188 L 323.55273 149.99219 C 342.10369 150.29142 343.81309 150.47563 348.1582 152.63477 C 350.7264 153.91096 353.77272 156.29182 354.92578 157.92578 C 361.04449 166.59612 358.81154 179.29268 350.13086 185.19531 L 346.97461 187.3418 L 349.89844 188.5625 C 353.97046 190.26438 359.40256 196.62703 360.64844 201.1543 C 363.9057 212.99007 358.71908 224.61614 347.91992 229.68945 C 343.97145 231.54439 341.32071 231.80716 323.55273 232.09375 L 303.61523 232.41406 L 303.61523 228.36719 L 303.61523 224.32031 L 308.04688 224.32031 L 312.47656 224.32031 L 312.47656 191.04297 L 312.47656 157.76562 L 308.04688 157.76562 L 303.61523 157.76562 L 303.61523 153.71875 L 303.61523 149.67188 z M 44.691406 149.81836 L 58.966797 149.81836 L 73.242188 149.81836 L 73.242188 153.79102 L 73.242188 157.76562 L 68.851562 157.76562 L 64.460938 157.76562 L 64.175781 200.23242 C 63.905307 240.39784 63.782226 242.91243 61.919922 246.6582 C 60.836965 248.83643 58.445345 251.63068 56.605469 252.86719 C 54.083782 254.56192 51.841091 255.11523 47.498047 255.11523 L 41.736328 255.11523 L 41.736328 251.14258 C 41.736328 247.63368 42.007033 247.16797 44.050781 247.16797 C 47.628213 247.16797 52.322984 245.22415 53.207031 243.375 C 53.645884 242.45706 54.150017 222.81799 54.328125 199.73438 L 54.652344 157.76562 L 49.671875 157.76562 L 44.691406 157.76562 L 44.691406 153.79102 L 44.691406 149.81836 z M 157.91016 149.81836 L 184.98438 149.81836 L 212.05664 149.81836 L 212.05664 159.25391 L 212.05664 168.69141 L 207.62695 168.69141 L 203.19531 168.69141 L 203.19531 163.22852 L 203.19531 157.76562 L 190.39844 157.76562 L 177.59961 157.76562 L 177.59961 171.67188 L 177.59961 185.58008 L 184.49219 185.58008 L 191.38281 185.58008 L 191.38281 182.10156 C 191.38281 178.64314 191.40761 178.625 195.81445 178.625 L 200.24219 178.625 L 200.24219 191.04297 L 200.24219 203.46094 L 195.81445 203.46094 L 191.38281 203.46094 L 191.38281 198.99023 L 191.38281 194.51953 L 184.49219 194.51953 L 177.59961 194.51953 L 177.59961 209.41992 L 177.59961 224.32031 L 190.89062 224.32031 L 204.17969 224.32031 L 204.17969 218.85742 L 204.17969 213.39453 L 209.10352 213.39453 L 214.02539 213.39453 L 214.02539 222.83008 L 214.02539 232.26758 L 185.96875 232.26758 L 157.91016 232.26758 L 157.91016 228.29492 L 157.91016 224.32031 L 162.83203 224.32031 L 167.75586 224.32031 L 167.75586 191.04297 L 167.75586 157.76562 L 162.83203 157.76562 L 157.91016 157.76562 L 157.91016 153.79102 L 157.91016 149.81836 z M 221.90234 149.81836 L 236.17773 149.81836 L 250.45312 149.81836 L 250.45312 153.79102 L 250.45312 157.76562 L 245.53125 157.76562 L 240.60742 157.76562 L 240.60742 191.04297 L 240.60742 224.32031 L 252.91406 224.32031 L 265.2207 224.32031 L 265.2207 218.85742 L 265.2207 213.39453 L 269.65234 213.39453 L 274.08203 213.39453 L 274.08203 222.83008 L 274.08203 232.26758 L 247.99219 232.26758 L 221.90234 232.26758 L 221.90234 228.29492 L 221.90234 224.32031 L 226.33203 224.32031 L 230.76367 224.32031 L 230.76367 191.04297 L 230.76367 157.76562 L 226.33203 157.76562 L 221.90234 157.76562 L 221.90234 153.79102 L 221.90234 149.81836 z M 369.58008 149.81836 L 383.85352 149.81836 L 398.12891 149.81836 L 398.12891 153.79102 L 398.12891 157.76562 L 393.64258 157.76562 L 389.15625 157.76562 L 389.45898 186.50195 C 389.74596 213.85137 389.86016 215.37393 391.82031 218.04102 C 400.28628 229.56086 420.2198 228.35013 425.78906 215.97656 C 427.43072 212.32905 427.62288 209.0829 427.64258 184.83398 L 427.66406 157.76562 L 423.23438 157.76562 L 418.80469 157.76562 L 418.80469 153.79102 L 418.80469 149.81836 L 432.58789 149.81836 L 446.37109 149.81836 L 446.37109 153.79102 L 446.37109 157.76562 L 442.00781 157.76562 L 437.64648 157.76562 L 437.32617 185.82812 C 436.96898 217.07604 436.86069 217.66298 430.04297 225.27734 C 427.99678 227.56268 424.51924 230.37697 422.31641 231.53125 C 417.26246 234.17949 402.50433 235.00077 397.0293 232.93945 C 388.51519 229.7339 382.75293 224.01669 380.24805 216.28711 C 379.59945 214.28544 378.96145 201.60525 378.69141 185.33008 L 378.23438 157.76562 L 373.9082 157.76562 L 369.58008 157.76562 L 369.58008 153.79102 L 369.58008 149.81836 z M 451.29297 149.81836 L 480.86133 149.81836 L 510.43164 149.81836 L 510.15039 160 L 509.87109 170.18164 L 505.44141 170.18164 L 501.00977 170.18164 L 500.7168 163.97266 L 500.42383 157.76562 L 493.08594 157.76562 L 485.75 157.76562 L 485.75 191.04297 L 485.75 224.32031 L 491.16406 224.32031 L 496.58008 224.32031 L 496.58008 228.29492 L 496.58008 232.26758 L 480.82812 232.26758 L 465.07422 232.26758 L 465.07422 228.29492 L 465.07422 224.32031 L 469.99805 224.32031 L 474.91992 224.32031 L 474.91992 191.04297 L 474.91992 157.76562 L 467.58398 157.76562 L 460.24805 157.76562 L 459.95508 163.97266 L 459.66211 170.18164 L 455.47852 170.48828 L 451.29297 170.79297 L 451.29297 160.30469 L 451.29297 149.81836 z M 516.26953 149.81836 L 530.54688 149.81836 L 544.82227 149.81836 L 544.82227 153.79102 L 544.82227 157.76562 L 540.39062 157.76562 L 535.96094 157.76562 L 535.96094 191.04297 L 535.96094 224.32031 L 547.77539 224.32031 L 559.58789 224.32031 L 559.58789 218.85742 L 559.58789 213.39453 L 564.01758 213.39453 L 568.44922 213.39453 L 568.44922 222.83008 L 568.44922 232.26758 L 542.35938 232.26758 L 516.26953 232.26758 L 516.26953 228.29492 L 516.26953 224.32031 L 520.70117 224.32031 L 525.13086 224.32031 L 525.13086 191.04297 L 525.13086 157.76562 L 520.70117 157.76562 L 516.26953 157.76562 L 516.26953 153.79102 L 516.26953 149.81836 z M 575.33984 149.81836 L 602.41406 149.81836 L 629.48828 149.81836 L 629.48828 159.25391 L 629.48828 168.69141 L 624.56641 168.69141 L 619.64453 168.69141 L 619.64453 163.22852 L 619.64453 157.76562 L 606.8457 157.76562 L 594.04688 157.76562 L 594.04688 171.67188 L 594.04688 185.58008 L 601.42969 185.58008 L 608.81445 185.58008 L 608.81445 182.10156 C 608.81445 178.70744 608.90764 178.625 612.75195 178.625 L 616.68945 178.625 L 616.68945 191.04297 L 616.68945 203.46094 L 612.75195 203.46094 L 608.81445 203.46094 L 608.81445 198.99023 L 608.81445 194.51953 L 601.42969 194.51953 L 594.04688 194.51953 L 594.04688 209.41992 L 594.04688 224.32031 L 607.83008 224.32031 L 621.61328 224.32031 L 621.61328 218.85742 L 621.61328 213.39453 L 626.04297 213.39453 L 630.47461 213.39453 L 630.47461 222.83008 L 630.47461 232.26758 L 602.90625 232.26758 L 575.33984 232.26758 L 575.33984 228.29492 L 575.33984 224.32031 L 579.76953 224.32031 L 584.20117 224.32031 L 584.20117 191.04297 L 584.20117 157.76562 L 579.76953 157.76562 L 575.33984 157.76562 L 575.33984 153.79102 L 575.33984 149.81836 z M 639.33398 149.81836 L 657.51172 149.81836 C 677.5555 149.81836 682.80954 150.82171 687.9082 155.62695 C 698.8321 165.92219 695.00267 185.23005 680.81445 191.38867 L 675.93555 193.50586 L 679.10742 196.74414 C 680.85158 198.52561 685.27551 205.45946 688.93945 212.15234 L 695.60156 224.32031 L 699.46484 224.32031 C 703.31447 224.32031 703.32617 224.33441 703.32617 228.29492 L 703.32617 232.26758 L 695.55078 232.26758 L 687.77344 232.26758 L 680.16797 217.85156 C 671.21003 200.87406 667.04543 195.67877 661.73047 194.8418 L 658.03906 194.25977 L 658.03906 209.29102 L 658.03906 224.32031 L 662.46875 224.32031 L 666.89844 224.32031 L 666.89844 228.29492 L 666.89844 232.26758 L 652.62305 232.26758 L 638.34961 232.26758 L 638.34961 228.29492 L 638.34961 224.32031 L 643.27148 224.32031 L 648.19336 224.32031 L 648.19336 191.04297 L 648.19336 157.76562 L 643.76367 157.76562 L 639.33398 157.76562 L 639.33398 153.79102 L 639.33398 149.81836 z M 115.64844 157.15039 C 110.26235 157.35201 104.89093 159.60131 101.50781 163.6582 C 96.773394 169.33536 95.389334 175.67683 95.427734 191.53906 C 95.457664 204.02125 95.75257 206.67754 97.636719 211.44727 C 100.17715 217.87823 105.76622 223.76326 110.65234 225.15039 C 115.30265 226.47055 116.4114 226.47532 120.9668 225.19922 C 130.18368 222.61736 136.05693 211.71908 136.96484 195.50977 C 137.87326 179.29151 134.08032 165.54033 127.31055 160.50977 C 124.03425 158.07518 119.83761 156.99357 115.64844 157.15039 z M 658.03906 157.4707 L 658.03906 172.16797 L 658.03906 186.86328 L 665.42383 186.23438 C 678.03032 185.15913 682.4039 182.0233 683.37109 173.36523 C 683.99507 167.78017 681.69173 162.31667 677.87695 160.32617 C 676.24858 159.47654 671.11791 158.48692 666.47656 158.12695 L 658.03906 157.4707 z M 322.32227 157.76562 L 322.32227 171.31445 L 322.32227 184.86523 L 330.58984 184.3457 C 340.19922 183.74079 344.15064 181.86947 346.53906 176.79102 C 348.71895 172.15576 347.91212 165.25236 344.82617 162.13867 C 342.27886 159.56839 334.97135 157.76562 327.10938 157.76562 L 322.32227 157.76562 z M 322.32227 192.23828 L 322.32227 208.42773 L 322.32227 224.61523 L 331.13867 224.03906 C 345.38241 223.10792 349.71635 219.87151 350.54688 209.54297 C 351.45625 198.23406 346.3442 193.80869 331.22461 192.82031 L 322.32227 192.23828 z "
       transform="translate(0,652.36216)"
       id="path3562" />
  </g>
</svg>
